# xmcd
#
# Track frame offsets:
#	150
#	14196
#	27849
#	38149
#	47866
#	58224
#	70729
#	82399
#	92149
#	107299
#	117488
#	130263
#	139625
#	146100
#	157990
#	169228
#	180960
#	191630
#	203525
#	219506
#
# Disc length: 3086 seconds
#
# Revision: 0
# Processed by: cddbd v1.4PL0 Copyright (c) Steve Scherf et al.
# Submitted via: dBpowerAMP V4.0
#
DISCID=240c0c14
DTITLE=Divers - Louisiana swamp blues
DYEAR=1900
DGENRE=Blues
TTITLE0=Slim Harpo - I'm a king bee
TTITLE1=Buddy Guy - I hope you come back home
TTITLE2=Lightning Slim - I'm warning you baby
TTITLE3=Lonesome Sundown - Gonna stick to you baby
TTITLE4=Lazy Lester I'm a lover not a fighter
TTITLE5=Lazy Lester - Sugar coated love
TTITLE6=Katie webster and Ashton Savoy - Baby baby
TTITLE7=Jimmy Anderson - Naggin'
TTITLE8=Joe Jonhson - Alimonia blues
TTITLE9=Sylvester Buckley - Mumblin' blues
TTITLE10=Clarence Garlow - Foggy blues
TTITLE11=Boogie Jake - Early in the morning
TTITLE12=Silas Hogan - My baby  walked out
TTITLE13=Wispering Smith - Baby left me this morning
TTITLE14=Mr Calhoun - Hey Mattie
TTITLE15=Rambling Hi Harris - Early one morning
TTITLE16=Leroy Whasington - Wild Cherry
TTITLE17=Tabby Thomas - Hoodoo party
TTITLE18=Henry Gray - Midnight dream
TTITLE19=Slim Harpo - Little queen bee
EXTD=
EXTT0=
EXTT1=
EXTT2=
EXTT3=
EXTT4=
EXTT5=
EXTT6=
EXTT7=
EXTT8=
EXTT9=
EXTT10=
EXTT11=
EXTT12=
EXTT13=
EXTT14=
EXTT15=
EXTT16=
EXTT17=
EXTT18=
EXTT19=
PLAYORDER=
